<svg xmlns="http://www.w3.org/2000/svg" xml:space="preserve" width="48" height="48" viewBox="0 0 48 48"><path d="M23.88 5.72c-1.766.005-3.478.425-4.907 1.16-3.419 1.762-5.394 3.786-4.69 9.64.406 3.37 3.242 4.92 5.744 5.74a3.9 3.9 0 0 1-.42 1.052 3.5 3.5 0 0 1-.763.883c-.564.486-1.26.894-1.82 1.725h.001a.1.1 0 0 0-.015.017l.011-.017-.003.002q-.003.001-.006.004-.025.009-.067.02c-.05.014-.175.042-.25.116-.005.006-.077.066-.11.1-.052.056-.128.163-.083.297.153.459.623.653 1.074.76.223.053.462.088.666.12.204.033.385.066.508.106.031.014.05.034.076.078.028.047.094.218.172.295.106.107.328.09.357.09.792 0 1.137-.5 1.584-.955.294-.298.633-.588 1.202-.773 1.098-.24 2.294-.845 3.404-1.54.296.276.587.566.838.88.532.665.869 1.375.748 2.017-.314 1.663-1.739 2.775-3.51 3.604-1.77.828-3.862 1.356-5.422 1.869-3.24 1.065-3.968 5.183-.728 7.886 3.186 2.66 9.184 2.667 11.607 1.096 1.355-.878 2.165-1.158 3.043-1.187.259-.009.478-.013.647-.016.253-.004.251-.004.392-.004l1.246.006a24 24 0 0 0-1.2-.35c-.304-.08-.605-.152-.81-.195-3.845-.798-5.847.117-7.36.393-.379.068-.723.098-1.061.058-.55-.064-1.257-.314-1.92-.676-.664-.361-1.285-.836-1.682-1.335-.265-.333-.428-.674-.455-.993q-.022-.237.062-.466c.058-.155.154-.31.301-.463.139-.145.326-.236.594-.303.214-.054.477-.091.785-.13 1.237-.16 3.176-.357 5.97-2.017 5.518-3.275 5.615-7.622 5.249-8.943-.184-.661-.704-2.774-2.338-4.514 4.196-3.168 4.886-7.08 1.582-11.232-2.2-2.764-5.297-3.911-8.242-3.904m-.597 5.296q.296-.002.612.021c1.461.107 2.453.4 3.113.775.66.376.99.828 1.154 1.288.164.459.155.932.094 1.334-.061.4-.17.71-.207.906-.02.107-.092.274-.21.469a6.6 6.6 0 0 1-.79 1.013 11 11 0 0 1-1.492 1.334 9 9 0 0 1-.33.229c-.458-.042-.941-.06-1.456-.045-1.765.053-3.038-.42-3.86-1.133-.824-.713-1.202-1.669-1.167-2.62.035-.95.486-1.893 1.344-2.573.75-.595 1.815-.991 3.195-.998m1.623 7.572a6 6 0 0 1-.6.316 6 6 0 0 0 .6-.316m1.555.346a9 9 0 0 1 .691.187 8 8 0 0 1 .635.234 7 7 0 0 1-.635-.234 8 8 0 0 0-.691-.187m-2.912.736a29.767 29.767 0 0 1 0 0m-3.365 2.273.252.078q-.127-.037-.252-.078m-3.35 4.404q.009.024.02.044l-.016.013-.004.004c.006-.015.01-.03 0-.06m2.389 1.206h.004l.005.002h.002l.01.015c-.018-.018-.02-.017-.021-.017m12.504 12.931c.197.034.388.062.597.106-.209-.044-.4-.072-.597-.106m.72.133" style="display:inline;stroke-width:.15"/></svg>