<svg xmlns="http://www.w3.org/2000/svg" xml:space="preserve" width="48" height="48" viewBox="0 0 48 48"><path d="M23.734 2.316c-1.71.048-3.415.547-4.97 1.424-4.14 2.334-5.747 5.356-5.045 11.192.418 3.476 3.239 5.41 5.638 6.533-.329.275-.656.592-.949 1.027l-.004.002-.008.002q-.023.009-.064.02c-.05.014-.175.042-.25.117-.005.005-.077.066-.11.1-.052.055-.128.163-.083.296.153.46.623.653 1.074.76.223.053.461.088.666.121.204.033.383.066.506.106.031.013.052.034.078.078.027.046.094.217.172.295.106.106.328.091.357.091.792 0 1.137-.5 1.584-.955.181-.184.388-.362.647-.517q.157-.094.345-.172c.07-.029.133-.06.21-.086-.077.025-.14.057-.21.086a3 3 0 0 0-.345.172 5.8 5.8 0 0 1 1.713 2.224 5.2 5.2 0 0 1 .408 2.319c-.045.9-.312 1.934-.93 3.101-.994 1.878-2.008 2.855-3.06 3.432-.79.433-1.609.64-2.471.816-.86.176-1.772.321-2.715.631-3.24 1.065-3.968 5.182-.729 7.885 3.187 2.659 9.185 2.668 11.608 1.098 1.355-.879 2.164-1.159 3.043-1.188q.39-.012.646-.015c.254-.005.254-.005.395-.004l1.244.004a24 24 0 0 0-1.2-.348 18 18 0 0 0-.81-.195c-3.845-.799-5.847.115-7.361.39-.378.069-.723.099-1.06.059a3.64 3.64 0 0 1-1.534-.576 4.3 4.3 0 0 1-1.117-1.043c-.218-.298-.359-.594-.41-.836a.7.7 0 0 1 .006-.387q0-.003.002-.006c.19-.363.405-.6.636-.762a1.86 1.86 0 0 1 .791-.302c.443-.072.96-.044 1.534-.045s1.206-.032 1.877-.23c6.894-2.045 7.72-9.68 7.7-12.497-.007-1.119-.105-2.935-.687-4.699a8.9 8.9 0 0 0-1.053-2.178c4.677-3.326 5.647-9.16 2.207-13.482-2.2-2.765-5.062-3.938-7.912-3.858m-.33 5.637c1.563.009 2.631.313 3.332.768.748.485 1.095 1.14 1.203 1.853.11.714-.031 1.484-.283 2.155-.251.67-.617 1.24-.924 1.537-1.027.996-2.225 1.788-3.3 2.488-.076 0-.147-.004-.225-.002-1.762.053-3.018-.469-3.834-1.27-.816-.8-1.195-1.89-1.166-2.996a4.62 4.62 0 0 1 1.291-3.072c.82-.847 2.018-1.428 3.588-1.459q.163-.002.318-.002m-.289 9.42-.021.02-.073.062.065-.059zm-1.066.424q-.058.048-.111.096zm-.547.617q-.042.24-.096.45.054-.21.096-.45m-1.272 2.351c-.174.15-.372.304-.564.454.192-.15.39-.303.564-.453m-2.009 2.153c.005.015.017.025.023.039l-.02.018-.003.005-.002.002v-.003c.006-.016.012-.03.002-.061m2.388 1.205h.004l.006.002h.002l.01.018zm6.393 18.68q.357-.005.746.013a12 12 0 0 0-.746-.013m2.451.203c.195.033.386.06.592.103-.206-.042-.397-.07-.592-.103" style="stroke-width:.15"/></svg>
